# xmcd
#
# Track frame offsets: 
#        150
#        21800
#        36534
#        71358
#        86359
#        105665
#        120183
#        150765
#        166467
#        186234
#        210125
#
# Disc length: 3214 seconds
#
# Revision: 1
# Processed by: cddbd v1.5.2PL0 Copyright (c) Steve Scherf et al.
# Submitted via: ExactAudioCopy v0.99pb5
#
DISCID=7a0c8c0b
DTITLE=Highway - AUTOSTRADA
DYEAR=2007
DGENRE=Blues
TTITLE0=Zycia styl
TTITLE1=Chwile
TTITLE2=Bluesie moj
TTITLE3=Dzordz
TTITLE4=Autostrada
TTITLE5=Od jutra
TTITLE6=Dlaczego
TTITLE7=Blogi stan
TTITLE8=Piekny sen
TTITLE9=Kometa Hajleja
TTITLE10=Sto mysli
EXTD=YEAR: 2007
EXTT0=
EXTT1=
EXTT2=
EXTT3=
EXTT4=
EXTT5=
EXTT6=
EXTT7=
EXTT8=
EXTT9=
EXTT10=
PLAYORDER=
